<svg id="map" class="map svg-content-responsive" xmlns:xlink="http://www.w3.org/1999/xlink" preserveAspectRatio="xMinYMin meet" viewBox="0 0 960  540"><g><g id="states"><a id="s01" rel="nofollow " title="Georgetown" class="hint   "><path d="m699.79 264.464 4.193 6.983-.783 1.14.663 1.926 2.119-.615-.577 2.008 1.41-.131-.437 1.032 3.5-.284-1.057 1.229 1.955.62 2.23-1.88 3.044.696-.379-1.402 5.58 4.107.595 4.13 2.086-.856 1.839 2.1-.578 1.256-1.004-.621 1.8 6.782 1.707.794 1.173-1.547-.052 6.12 13.184-.057-3.465 6.28-8.598 9.544-6.964 13.96-4.84 21.32 1.208 8.158-2.15 4.596-8.186 7.923-5.846 2.564 2.815-2.53-.334-2.265-10.469-2.424-6.857-4.635-3.336-4.31-3.573-1.194-.517-2.804-1.995.8.499-1.492-1.75.588.424-1.722-1.863 1.533-5.327-1.874-2.248-2.695-1.422.69-.132-1.814-13.683-4.133-1.853-1.11.526-1.016-1.016-1.208.564-3.037 5.898-5.837 4.92-7.63.705-3.434 6.132-7.787 6.66-4.022 1.372-3.026 6.638-6.06-.932-3.724 4.3-14.696 8.497-10.878 1.19-3.157Z" stroke="#FFFFFF" strokeDasharray="1, 0" strokeWidth="1"/><text x="688.880439510451" y="320.26249045824846" title="Oconee" class="hint Oconee ">Georgetown</text></a><a id="s02" rel="nofollow " title="Florence" class="hint   "><path d="m654.102 179.565 4.498.698 4.937 3.059 3.497 3.845 2.323 5.313-.593 3.536-3.115 3.285 3.673 4.934 1.632 4.34 2.042-.163-1.05 1.776 1.304 3.182-1.881-.6-.008 3.243-.941.821 3.386 5.648.348 5.723-1.17 1.659 2.403 3.81 2.354.808-1.33 3.075 2.526 2.842 1.396-.307.485 1.858.958-.758-.027 1.657 2.976 2.567 3.986.988-1.285 1.17 2.764 1.989 2.768 4.792 2.133.44-.172 1.023.651-1.404 1.182.163 1.244.86-.737.641 2.876.847-.678.85.728 2.437-1.113.003.717 1.37-3.094-.658-1.448-2.05-4.362-.614-1.884 2.871-2.755.317-3.075 2.368-7.844 1.432-18.044-5.164-.234-1.71-5.419.475-1.787 1.287-4.578-1.18-2.566-3.333-7.41-.18-4.814-7.488-14.617-.429-.997-.942-3.23-9.056 11.02-6.777-2.52-2.883-10.784-5.284-5.309-6.029-5.457-1.46 35.303-26.979 7.907 1.145 2.71-8.078 5.85 1.784 1.957-3.167Z" stroke="#FFFFFF" strokeDasharray="1, 0" strokeWidth="1"/><text x="639.1017676273399" y="225.0243100269468" title="Florence" class="hint ">Florence</text></a><a id="s03" rel="nofollow " title="Fairfield" class="hint   "><path d="m417.555 136.24 73.097 4.681-.564 6.972-2.292 2.085 1.456 3.174 7.227 8.568 6.713 1.267.052 3.03 1.828 1.852-7.478 17.595-18.148 2.721-13.394 3.9-1.125-.72-.924 1.829-.993-.577-1.61 1.729-11.453-.995 1.717 3.68-1.48 1.69.211 2.04-6.346-5.009-3.673.294-4.137-4.73-4.137-.82-3.674-4.73.208-4.39-3.466-4.954-.686-4.205-3.378-6.313-3.36-10.374 1.2-2.763-1.469-2.454Z" stroke="#FFFFFF" strokeDasharray="1, 0" strokeWidth="1"/><text x="449.00224808281934" y="164.96703546923519" title="Fairfield" class="hint ">Fairfield</text></a><a id="s04" rel="nofollow " title="Dorchester" class="hint   "><path d="m502.346 360.817 38.533-24.638 1.076 1.828.146 4.233 2.565 3.599 6.271 2.622 4.64-1.095 5.103 1.888 2.325 6.477 4.513 4.133-2.756 5.151 23.524 21.251-3.634 1.873 4.017 4.156 1.377-2.405 3.419 2.167-4.155.91 8.282 8.269-2.365 6.408-2.92-.906-.274-1.39-.602 2.03-2.639.322-.63 1.413-7.47 1.133 6.023 4.917 1.858 3.89-20.692-5.652-13.4-1.066.67-3.924 1.5-.574-2.86-3.734.843-4.881-2.508-4.314 1.355-2.707.275-5.443 2.543-2.296-1.605-3.065-5.377.537-2.68-2.407-6.755 1.05-2.947-1.99-2.462 1.858-9.052-1.064-7.016-6.222-4.793-8.174-5.365-3.188-2.224.735Z" stroke="#FFFFFF" strokeDasharray="1, 0" strokeWidth="1"/><text x="544.7871529738458" y="376.86357615974833" title="Dorchester" class="hint ">Dorchester</text></a><a id="s05" rel="nofollow " title="Dillon" class="hint   "><path d="m681.997 128.21 12.735 12.738 38.037 39.56-1.936.656-.114 1.728-5.588 5.13-6.058-5.596-5.477 5.2-3.388.188-7.341-3.67-1.443 1.272-10.07-5.096-4.17.07-9.3 1.962.303 1.521-2.37.606-3.773 3.966-4.101.504 1.11 2.629-2.02-4.411-3.496-3.845-4.82-3.01-1.316.44Z" stroke="#FFFFFF" strokeDasharray="1, 0" strokeWidth="1"/><text x="682.6815713007371" y="165.50566636623066" title="Dillon" class="hint ">Dillon</text></a><a id="s06" rel="nofollow " title="Darlington" class="hint   "><path d="m631.089 142.7-.51 3.44 3.565 4.236 1.344-1.12 1.221 1.199.67-2.187 1.917.12.757-3.61 1.558 1.069-.354 1.439 3.637 1.302.717 1.565-1.458 1.49.218 1.611-2.869.198.166 4.613 2.862 3.155 1.475.115-.344 4.088 2.85-2.324 2.188 1.187-.808 2.822 2.152 1.705-2.644 2.278 4.362 5.637.341 2.837-1.794.238-1.956 3.167-5.852-1.784-2.71 8.078-7.906-1.145-35.872 26.928-4.109-4.682-3.644-2.19-3.222-5.36 6.133-5.735.133-5.091-3.235-7.106.126-1.95-4.706-5.085-.96-8.193-1.881-.084-1.986 4.478-5.07 2.456-1.13-2.683-3.09-1.385-1.803-2.505 32.557-20.816 2.463 1.015 5.96-2.492 2.767 2.39 5.722-1.42 3.427 1.065 2.598-1.162 1.708-4.017 2.355-1.907Z" stroke="#FFFFFF" strokeDasharray="1, 0" strokeWidth="1"/><text x="605.0532897039225" y="174.98163399374167" title="Darlington" class="hint ">Darlington</text></a><a id="s07" rel="nofollow " title="Colleton" class="hint   "><path d="m502.128 361.456 3.927 1.081 2.175-.745 5.354 3.171 4.82 8.196 7.017 6.222 5.351 1.231 3.711-.169 1.61-1.904 3.843 2.045 6.7-1.057 2.681 2.407 2.393-.992 1.328 1.34 1.326-1.055 1.64 1.562.276 1.742-2.524 2.227-.275 5.443-1.355 2.707 2.508 4.314-.843 4.88 2.852 3.846-1.48.446-.934 2.035 1.228 4.134-1.553 4.81-4.027 4.155.42 1.475-2 2.625-.814 3.526.878 1.966 2.319 1.167-.727 1.266 1.668-.231.912 3.007-.938 1.214.291 2.84 2.15 2.808 2.113-.045-2.423 3.994-2.794.544.907 3.12 3.284-2.297 1.274.707-1.365 3.484.965 3.67-3.581 3.478 4.687 2.413 3.899 5.329 2.071.914 1.4.034.288-1.698-3.406-2.38.25-1.087 3.51.35.385 1.941 4.608-2.946.983.957 1.64-.727.602-1.32 1.333 1.236-17.197 12.007-16.629-6.725-1.637-3.553-2.712-1.69-2.053-5.933-1.646 2.423-.268-2.402-2.313.275.954-2.461-.612-.85-2.85.56-1.176-1.442-1.713 1.388-1.184-1.772-2.157-.553-1.7-2.858.76-2.155-2.79.202.216-1.143 1.971-.206-.006-1.098-2.56-.23-.821-1.914.31-1.178 1.759-.173-.225-1.257-4.47 1.042-1.999-2.413-1.361.964-1.235-1.384-.899 1.315-2.97-.167-.158-.929-.71.86-.58-1.725-1.383.713.167-.893-4.748-1.343-3.136-3.83-3.506-10.564-3.166-3.68-1.671-5.328-5.045-5.289-1.822-.062-2.158-3.682-1.736-.467-3.363-8.31-9.196-11.455 19.403-12.153 4.189 6.766 1.335-.189 2.592-5.124-1.634-1.393-.863-3.7Z" stroke="#FFFFFF" strokeDasharray="1, 0" strokeWidth="1"/><text x="510.29007156669365" y="412.2176107334081" title="Colleton" class="hint ">Colleton</text></a><a id="s08" rel="nofollow " title="Clarendon" class="hint   "><path d="m624.946 247.536-5.263 10.7-3.949 1.397-6.806 6.845 2.7 7.416-2.28 2.848-14.708 33.377-3.148-.938-.34 1.56-3.25 1.18.278 1.593 2.44 2.014-1.64-.19.552 1.69-1.608-.977.17 1.873-1.477-.127-.14-1.875-1.292 1.889-1.116-.928-2.467 1.82.17-1.267-1.296-.208.442 1.714-2.34-.976-2.14 1.353-.355-2.43-3.774 2.713-1.762-1.71-5.587 2.768-3.638.158-5.723-2.414-5.85-5.166-.26-3.89-3.005-.381.662-1.261-1.53-.607-.12-1.376 2.814-.057-.16-2.844-.848-.796-1.616 1.076-2.363-3.092-2.706-.6.124-1.189-1.69-1.22 1.98-1.892-2.373-1.148-.158-2.901-2.66-2.168 1.544-1.037-.65-1.395 4.831-4.808 2.56-6.546 2.996.123.798-3.835 2.599-.134.676 2.3-1.147 1.96 5.703-.59-.705-8.439 16.875-2.986 2.61-3.202 37.101-22.772 3.97 9.917Z" stroke="#FFFFFF" strokeDasharray="1, 0" strokeWidth="1"/><text x="570.2286994582422" y="282.93279480626813" title="Clarendon" class="hint ">Clarendon</text></a><a id="s09" rel="nofollow " title="Chesterfield" class="hint   "><path d="m532.995 96.17 84.918 1.797-.829 1.304.896 4.793 4.713 4.519 2.991 8.123 5.357 5.615 1.776-.271 2.832 1.801-.722 1.48 3.177 4.21-3.541.587-3.474 12.572-1.753-.264-2.566 2.06-.232 2.054-2.133 2.435-2.902.698-2.51-1.072-5.216 1.464-3.285-2.436-5.904 2.492-2.463-1.015-32.306 20.717.178-4.669-2.218-.932-1.234-3.993-2.008-2.045-.539-11.847-3.125-1.828-.486-2.239-2.004-1.93-1.896-8.186-2.842-1.955-1.565-1.842.71-1.262-2.584-1.87.192-3.367-1.141.323-1.327-2.883-1.418-.212-1.975-3.682-1.716-.754.372-2.142-4.239-7.02.313-1.053-4.975-3.97Z" stroke="#FFFFFF" strokeDasharray="1, 0" strokeWidth="1"/><text x="578.0180938476052" y="125.22617652721483" title="Chesterfield" class="hint ">Chesterfield</text></a><a id="s10" rel="nofollow " title="Chester" class="hint   "><path d="m410.076 95.519 77.826.13 2.927 5.297-.167 7.319 2.392 7.267-3.849 4.923-1.055 5.548 3.045 13.524-.543 1.394-73.097-4.68.889-10.267-3.505-3.156-1.637-3.44-.073-7.649-3.143-.248-1.327-1.563 4.794-4.674-.86-5.814-1.371-2.238-2.461-.482Z" stroke="#FFFFFF" strokeDasharray="1, 0" strokeWidth="1"/><text x="443.85668395479576" y="116.66668679443907" title="Chester" class="hint ">Chester</text></a><a id="s11" rel="nofollow " title="Berkeley" class="hint   "><path d="m591.169 309.576 4.309.748.236-1.241 1.273.493.605-1.072 5.09.978.852-1.01.56.993.943-.895.557 1.315 1.065-1.144 1.49 1.718.506-1.998 1.064 1.538 3.3-.169 8.275 7.76 1.025-.663 3.638 3.244-1.406 1.393 2.326 1.28.936 2.477 5.2 2.975 1.093 1.787 3.178-.554 3.734 7.468 2.851 1.52 4.568.292 12.714 6.307 5.785 1.014.27 1.876 1.423-.691 2.562 2.818 5.162 1.756 1.675-1.558-.443 1.673 1.808-.52-.499 1.492 1.995-.8-.459.901 1.303.44-.501 1.243 1.222 1.088-4.954 1.27-5.086 9.15-1.717.434-3.495-1.981-10.99 5.055-2.51 5.57-7.29 7.998-1.952 4.365-4.755 4.068-.52 2.93.789 2.012-1.064 2.303-1.61-.178-5.067 3.61-1.518-.826-3 8.207-5.579 2.346-.61 5.419-3.49.367-.545-4.151-3.23-1.519-1.149-2.617.257-2.762 1.873-2.349-8.58 1.18-4.015-8.905.235-4.338-2.07-2.663-5.65 1.815-30.4-26.643 2.707-5.319-4.464-3.965-3.265-7.198 1.065-3.138 5.561 2.02 7.883-5.582 1.9-8.418-.248-5.047.41-1.283 1.097 1.148.055-1.205.975.044.043-9.071 2.404.95-.477-1.698 1.342.158.029 1.262 2.29-1.79 1.259.863 1.15-1.824.194 1.91 1.694-.143-.358-1.694 1.64.983-.698-1.593 1.655.061-2.72-3.473 3.266-1.232Z" stroke="#FFFFFF" strokeDasharray="1, 0" strokeWidth="1"/><text x="605.8674846736643" y="358.0321214258259" title="Berkeley" class="hint ">Berkeley</text></a><a id="s12" rel="nofollow " title="Calhoun" class="hint   "><path d="m491.649 259.253.663 1.636 3.667 1.354.698 1.394 1.338-.294-.714 1.786 1.91-.726 3.954 1.794-.02 1.426 3.28-2.177 1.881 1.963-.78-1.416.82-.891 1.27 1.517-.39 1.667 1.663-1.867 1.465 1.235.572-1.701.832 1.831 2.451.627 4.472-2.76-.432 1.762 2.237 2.402 2.673.401-1.34.903.373 1.471 1.617 2.913 3.04 1.637-.579 1.063.896 1.713 3.65.946-.337 2.328 4.822 3.868-1.46 1.834 2.659 2.168.158 2.9 2.326 1.06-1.902 2.19 3.198 3.532-1.78.45.327 2.694-4.946-4.226-1.503.47-.127-1.104-6.88 1.667-.904.755 2.98 1.936-4.881 6.479.649.728-.72.876 1.946 2.773-.845.85-1.403-1.29-4.25.459-4.856-5.745.157-2.453-15.268-13.208-9.824-2.518-5.216 2.337-2.637-.542-.554-5.724-2.902 3.162-10.266-13.31 6.74-4.036 4.922-.96 4.107-3.03-4.951-3.512-7.032-.411-1.263 2.886-1.275-.107-.469 2.874-2.956-.326-.135-3.684 1.865-2.677 1.018-13.398 5.152-1.19-.284 2.58 2.046.745-.184 1.322 4.683 1.193 2.229 2.482 3.145-.919-.424 3.278Z" stroke="#FFFFFF" strokeDasharray="1, 0" strokeWidth="1"/><text x="494.68961163855494" y="281.49944422394896" title="Calhoun" class="hint ">Calhoun</text></a><a id="s13" rel="nofollow " title="Beaufort" class="hint   "><path d="m497.505 436.928 3.535 2.816 2.428.776.537-.833.58 1.726.71-.86.158.928 2.97.167.899-1.315 1.235 1.384 1.361-.964 1.998 2.413 4.47-1.042.226 1.257-1.76.173-.31 1.178.822 1.914 2.56.23.006 1.098-1.97.206-.216 1.143 2.788-.202-.758 2.155 1.699 2.858 2.157.553 1.184 1.772 1.713-1.388 1.176 1.441 2.85-.56.612.85-.954 2.462 2.313-.275.268 2.402 1.646-2.423 2.053 5.932 2.712 1.691 1.637 3.553 16.629 6.725-4.833 6.011-5.066 14.805-15.526 8.065-7.993 2.724-14.216 16.646-10.366 6.178-5.394.961-3.435 3.981-3.556.293-1.004-1.333 2.127-3.604-4.394-2.002 2.6-2.058-4.274-.607-2.746 1.713.4-1.79-1.328-1.688 1.03-.452 1.215 1.38.16-2.829-.903-.677 1.178-.612-1.719-1.658-1.051.494.811-1.416-3.164-1.27-.922.868-.606-2.689-1.556-1.37.418-.889-.784.049-.504-4.098 3.424-3.2-.394-4.207-1.72-2.418 9.574 1.002 1.499-8.32 4.112-.196 2.073 1.255 2.517-5.423 2.319-.804 1.659-4.19-2.8-.77 2.312-6.706 2.105-1.005-.615-4.526-3.399-5.654 1.496-2.28.534-8.263-2.44-3.413.233-2.517-2.87-4.52Z" stroke="#FFFFFF" strokeDasharray="1, 0" strokeWidth="1"/><text x="502.8689789560181" y="488.1688155148435" title="Beaufort" class="hint ">Beaufort</text></a><a id="s14" rel="nofollow " title="Bamberg" class="hint   "><path d="m444.374 319.235 2.166.357 2.383 4.297 3.335.292 7.018 4.562 3.08.204 5.431 4.89 2.303.04.854 1.627 7.534 3.202.862 1.716 1.756-.22 8.386 7.308-.206.921 4.3 1.994-.109 1.304 1.402-.132 1.143 5.555 1.681.306 1.09 2.327 2.55 1.664-13.07 8.255.864 3.7 1.634 1.393-2.592 5.124-1.335.19-4.19-6.767-19.402 12.153-2.423-3.52-3.508-1-11.247-12.645-2.35-4.394 1.932-37.894Z" stroke="#FFFFFF" strokeDasharray="1, 0" strokeWidth="1"/><text x="457.8720227130833" y="355.38320127609717" title="Bamberg" class="hint ">Bamberg</text></a><a id="s15" rel="nofollow " title="Barnwell" class="hint   "><path d="m424.27 311.127 4.366 1.67 5.782.047 5.868 5.43 4.18.8 1.18 6.97-1.931 37.894 4.652 6.835-23.036 1.71-23.71-8.066-9.678 10.095-3.564.374-8.66-3.788-7.78-6.834-1.275-3.487 1.004.395 1.094-3.11Z" stroke="#FFFFFF" strokeDasharray="1, 0" strokeWidth="1"/><text x="406.8539915824973" y="347.1320814972626" title="Barnwell" class="hint ">Barnwell</text></a><a id="s16" rel="nofollow " title="Union" class="hint   "><path d="m398.933 86.765 2.66.842 1.062-1.572.648 1.974 1.04-1.656 5.204 1.77-.076 1.773 3.464 2.72-4.093 3.997 2.48.58 1.371 2.237.84 5.907-4.774 4.581 1.327 1.563 3.143.248.073 7.648 1.637 3.441 3.531 3.275-1.46 8.96.977 2.31-1.005 4.224.514 7.26-2.15-.442-.77 1.484-1.74.176-1.363-1.216-2.211.676-7.425 7.37-1.477-1.234.637-1.565-1.426-.233.529-2.21-8.1-5.996-.56-1.841-1.399.54-4.033-3.043-.063-1.198-2.61-.484.11-1.15-1.846.86-1.303-1.1-2.174 1.32-4.137-2.786-.666.809-7.749-2.39-4.33-3.676-1.43 1.022 9.457-39.606 9.581-12.338 1.719 1.13 1.892-1.15.973 1.958 3.948.02.995 3.375 2.018 1.014 5.103-2.199Z" stroke="#FFFFFF" strokeDasharray="1, 0" strokeWidth="1"/><text x="382.0999074154302" y="117.0628126929575" title="Union" class="hint ">Union</text></a><a id="s17" rel="nofollow " title="Cherokee" class="hint   "><path d="m356.996 36.217 68.055 3.13-4.6 4.6-1.114 14.8-7.362.13-.6-.9-2.448 2.668.418 6.649 1.116 1.895-2.22 5.775 2.502 1.833-.448 2.054.95 1.49-1.162 2.662 1.316 5.287 2.069 3.048-.533 1.278-3.464-2.72.136-1.744-4.302-1.735-2.002 1.592-.648-1.974-1.16 1.564-6-2.855-5.102 2.199-2.018-1.014-.995-3.375-3.948-.02-1.02-1.97-2.422 1.05-3.606-2.545-.648-1.757-2.432.26-4.91-15.847-2.358-1.236.198-3.359Z" stroke="#FFFFFF" strokeDasharray="1, 0" strokeWidth="1"/><text x="382.0914318074833" y="58.45770199137284" title="Cherokee" class="hint ">Cherokee</text></a><a id="s18" rel="nofollow " title="Allendale" class="hint   "><path d="m391.943 374.512 9.678-10.095 23.71 8.067 23.036-1.711 8.944 10.205 3.508.999 2.423 3.52-20.766 13.132-.107 6.02-5.27 2.334 2.056 8.45-9.055 7.991-1.254 3.286-8.896 3.738-1.987-.68 1.597-1.1-.864.074.238-1.391-.75.643.046-1.017-1.937-.498 2.346-1.352-2.246-.944 1.156.158-.67-.756 1.085-.906-1.178-1.151 1.402-2.801-1.246.278.732-.837-1.121-.928 1.134-1.164-1.47-1.347-1.021.484-.48-1.674-1.227 1.123-1.016-.327 1.03-4.354-3.52-1.321 2.036-2.658-2.242-.03.072-2.45-1.005-.402.593-.947-2.43-1.886.254-1.763-1.322-1.642-.177-2.089 1.391.81.805-2.598.438-2.923-1.27-.69 1.172-1.102-1.623-1.142-.938.865.205-1.5-1.263-.365 1.065-.799-2.42-2.136-1.207.343-.895-1.652-2.106.625-.411-2.455-1.227 1.034-.623-1.944-3.393-1.197.815-.907-.628-1.235-1.467 1.104Z" stroke="#FFFFFF" strokeDasharray="1, 0" strokeWidth="1"/><text x="417.24743401611397" y="391.6855914897503" title="Allendale" class="hint ">Allendale</text></a><a id="s19" rel="nofollow " title="Laurens" class="hint   "><path d="m320.496 101.393 2.02 1.116-.494.857 2.658 3.965.812-1.167 1.135 1.983 2.305-.14.677 4.118 1.646.675-.54 2.024 1.712.317 7.19 6.376 7.038 2.027 5.538 7.592 2.256.245.495 1.894 1.42-1.088 2.17 2.673.561-1.937 2.144-1.405 4.331 3.676 7.749 2.39.666-.809 4.137 2.785 2.174-1.32 1.303 1.1 1.846-.859-.11 1.15 2.61.484.063 1.198 1.987 1.162-8.118 12.968-4.043 2.492-6.458 11.849-7.318 3.672-1.71 1.593.143 1.544-6.076 3.46-2.344 9.06-4.504 6.992-3.491-3.045-.946-2.576-4.294-.83-9.918-9.184-3.496-1.39-1.531.737-1.716-3.302-4.606-.99-2.202-5.694-6.148-4.417-.085-1.612-1.712-.17-2.898-4.874-6.489-5.924.09-2.327 10.446-8.436-.307-8.29Z" stroke="#FFFFFF" strokeDasharray="1, 0" strokeWidth="1"/><text x="330.3423445045078" y="150.5650624765225" title="Laurens" class="hint ">Laurens</text></a><a id="s20" rel="nofollow " title="Edgefield" class="hint   "><path d="m339.009 235.16 10.3-2.455 5.03.248 3.273 13.506 4.354 4.126 24.492 8.158-47.925 45.73-4.56-5.154-9.249-5.27 2.667-5.972-1.99-3.448-2.808-.61-.371-2.356-1.86-.407.41-1.552-2.82-.713-2.29-5.456 2.527-2.862-1.173-3.71 2.632-2.865-.788-1.532 1.487.413 1.869-3.317-.627-1.398 3.345-1.769-5.232-7.35-.786-3.714 1.602-.413-1.191-4.607Z" stroke="#FFFFFF" strokeDasharray="1, 0" strokeWidth="1"/><text x="335.6307550021343" y="265.63113520463787" title="Edgefield" class="hint ">Edgefield</text></a><a id="s21" rel="nofollow " title="McCormick" class="hint   "><path d="m296.36 218.625 2.806 14.96 8.218-7.59 4.09 5.22 5.332 2.264 3.182-2.323 10.054 1.232 4.107-.705-.267 4.832-14.555 3.896 1.19 4.607-1.6.413.785 3.714 5.232 7.35-3.345 1.769.627 1.398-1.87 3.317-1.486-.413.788 1.532-2.632 2.865 1.173 3.71-2.528 2.862 2.291 5.456 2.82.713-.41 1.552 1.86.407.37 2.357 2.808.609 1.99 3.448-2.666 5.971-1.415.984-2.582-.811-6.856-5.57-.522-5.377-4.589-5.866-1.854-8.599-6.7-4.877-.412-2.926-13.647-10.244-2.882.18-4.02-2.775-5.31-4.776-2.735-4.367-5.488-1.06-3.29-5.872.592-1.858-2.538-3.472 8.62-9.412 3.92.092 2.313-1.59 4.204 3.39 10.157.465Z" stroke="#FFFFFF" strokeDasharray="1, 0" strokeWidth="1"/><text x="289.64705163233583" y="245.2354045820237" title="McCormick" class="hint ">McCormick</text></a><a id="s22" rel="nofollow " title="Greenwood" class="hint   "><path d="m307.201 162.56 9.126 8.398 1.242 4.567 4.576.97 1.703 3.3 1.574-.716 3.404 1.33 10.01 9.246 4.294.829.946 2.576 4.243 4.252 2.582.655.285 2.31 1.706-.07-.346 2.465 1.38 2.593 3.943 2.22-2.59 2.426-1.695 3.762-1.907.438-.437 2.048-1.426.465-2.425 6.075-5.93 6.817-2.45 5.644-5.127 1.355.267-4.832-4.107.705-10.054-1.232-2.278 2.228-2.235-.226-4.74-2.57-3.351-4.592-8.218 7.588-2.807-14.959 8.14-7.338 3.468-8.683.04-4.623-3.256-8.637-5.795-5.285-.464-6.974-1.688-.758-1.405-2.836Z" stroke="#FFFFFF" strokeDasharray="1, 0" strokeWidth="1"/><text x="314.205949390487" y="204.0096445480551" title="Greenwood" class="hint ">Greenwood</text></a><a id="s23" rel="nofollow " title="Anderson" class="hint   "><path d="m279.16 107.174-1.105.865-.28 3.793 1.11 1.193-1.104 1.365 1.161 1.042-.922 2.248.962.871-1.485 2.232.63 1.796.986-.216.854 3.133-.602 2.056 2.085 2.31-.798.477 2.155 1.535 1.125 6.727 4.503 2.98 2.95 3.829 2.674.523.096 2.042 3.97 2.532-57.253 44.704-.802-9.406-4.305-4.554-2.053-7.38-5.393-4.014-3.462-14.927-2.023-1.157-.138-1.788-3.625-1.827-2.85.808-2.078-.817-1.955 1.477-1.012-.9-3.975.545 27.425-31.49 40.331-23.937 1.543 1.416-.135 1.487 2.076.858.163 2.632 1.035.732Z" stroke="#FFFFFF" strokeDasharray="1, 0" strokeWidth="1"/><text x="245.679233485487" y="144.76890159518044" title="Anderson" class="hint ">Anderson</text></a><a id="s24" rel="nofollow " title="Greenville" class="hint   "><path d="m292.776 35.08 3.988.95 5.658-2.4 8.789.613-1.398 56.488.94-.431 3.148 2.951 3.068 4.863 1.147-.18-.565 1.536 2.057 2.462.888-.54-12.232 32.39.307 8.289-10.447 8.436-3.969-2.532-.096-2.042-2.652-.507-3.84-4.629-2.78-.874-1.994-8.087-2.056-1.359.676-.745-2.02-2.094.513-2.475-2.412-4.45 1.488-2.162-.962-.871.922-2.248-1.161-1.042 1.103-1.365-1.108-1.193 1.856-8.906-1.028-.689-.175-2.649-2.064-.84.135-1.488-1.605-1.232 1.431-1.536-1.455-.538.95-1.507-1.203-.163.831-2.708-1.27-3.428.63-1.116-1.134-.318-.577-3.67-2.32-1.582-1.273-7.523-2.762-2.087 1.89-.921-1.244-3.294.714-1.82-7.686.981 1.26-3.747-.634-1.968-1.085.915.15-2.576.712-1.385 2.392-.221.388-1.666-5.313.368-4.022 1.954-8.99-.227-4.027 2.356-1.565-.111-1.948-3.297 1.432-.149.374-2.04 1.561.583 1.634-2.708 3.56-1.024.305.893 1.566-2.11-1.066-1.286 1.747-1.953.957 1.722 2.331-.225 2.07-2.245 1.68 1.093 2.108-2.293 4.607-.247 3.386-1.942.039-1.399 3.474.943 3.108-1.645 1.21.593 2.307-2.255 3.13-.243-.361 2.214 2.363-.28 2.072-2.577.304-2.398 3.879-3.159 1.246.821.724 2.35-.743.788 1.54 1.792Z" stroke="#FFFFFF" strokeDasharray="1, 0" strokeWidth="1"/><text x="281.4360987693392" y="83.5958750029964" title="Greenville" class="hint ">Greenville</text></a><a id="s25" rel="nofollow " title="Abbeville" class="hint   "><path d="m298.124 150.507-.05 2.404 3.616 2.62 5.511 7.03-11.803 10.94 1.406 2.826 1.688.758.464 6.974 4.08 3.181 3.94 6.213.991 9.151-1.262 4.633-2.206 4.05-8.14 7.338-6.669 1.082-10.157-.465-4.204-3.39-2.313 1.59-3.92-.092-8.62 9.412-.003-2.56-4.338-5.495-1.935-.848-.02-3.765-2.365-1.942-2.112-4.131-5.614-3.246-3.217-9.564Z" stroke="#FFFFFF" strokeDasharray="1, 0" strokeWidth="1"/><text x="269.69660238362076" y="192.85292423749755" title="Abbeville" class="hint ">Abbeville</text></a><a id="s26" rel="nofollow " title="Pickens" class="hint   "><path d="m260.992 55.972-1.034 4.026 1.085-.915.634 1.968-1.152 3.94 7.578-1.173-.714 1.82 1.244 3.293-1.89.921 2.762 2.087 1.272 7.523 2.321 1.582.577 3.67 1.134.318-.63 1.116 1.27 3.428-.831 2.708 1.145-.176-.892 1.846 1.345.814-41.59 25.014-6.993 8.044-1.767.25-.457-1.726 2.687-.08 1.23-1.53-1.322.483-.32-.903 2.228-1.536-2.295.308.993-1.207-2.642-1.565.372-4.321-2.17-1.001 1.229-2.033-.257-2.428-5.641-1.958 1.545-3.147-.524-.877 2.654-3.905-1.953-.912-.061-1.96-1.206.651.136-5.432-1.78-9.32 1.174-.317-.759-1.768.648-1.306-1.02-.92.775-2.474-1.69-1.95.977-1.066-1.49-1.06.492-1.975-2.484-.7-1.225-1.759 1.809-3.57 2.413.043-1.159-1.07.964-2.291-.613-1.065 2.778-3.25 15.221-4.838 1.028.749-.796 2.624 2.38-.521 1.995 3.32 5.545-2.268 8.99.227 4.022-1.954 5.313-.368-.388 1.666Z" stroke="#FFFFFF" strokeDasharray="1, 0" strokeWidth="1"/><text x="233.96472791971954" y="84.56847478813945" title="Pickens" class="hint ">Pickens</text></a><a id="s27" rel="nofollow " title="York" class="hint   "><path d="m425.05 39.346 44.627 2.576-1.623.413-.743 2.199 1.907 1.52.672 2.515-2.466 1.786-.943 3.763.067 2.11 2.136 2.81 14.29-10.281 4.732 7.686-.865 2.24L488 60.86l-1.62 2.787.781 1.28.9-.819-.734 1.275 2.227 2.376.157 4.134 1.403.137.729 2.327.476 4.596-1.812 3.35-.218 4.753 1.738 4.312-4.126 4.28-77.826-.13 2.244-1.533 1.161-2.585-2.082-3.11-1.316-5.288 1.163-2.662-.951-1.49.448-2.054-2.501-1.833 2.219-5.775-1.116-1.895-.418-6.649 2.448-2.667.6.9 7.362-.13 1.115-14.801Z" stroke="#FFFFFF" strokeDasharray="1, 0" strokeWidth="1"/><text x="440.5134877950488" y="70.52572342077183" title="York" class="hint ">York</text></a><a id="s28" rel="nofollow " title="Williamsburg" class="hint   "><path d="m698.838 261.668.952 2.796-2.797.972-1.19 3.157-8.546 10.995-4.25 14.579.93 3.724-6.637 6.06-1.372 3.026-6.194 3.512-6.518 8.187-.785 3.543-4.92 7.63-5.929 5.889-.043 5.21-3.102-2.14-4.568-.292-2.874-1.536-3.711-7.45-3.178.553-1.094-1.787-5.2-2.975-.935-2.477-2.326-1.28 1.406-1.393-3.638-3.244-1.025.663-8.274-7.76-3.301.17-1.118-1.536-.514 1.998-1.522-1.752-.901 1.18-.657-1.334-2.326.926-4.13-1.043-3.91 1.68 14.707-33.377 2.28-2.848-2.7-7.416 6.806-6.845 3.949-1.396 5.263-10.701 5.529.422 4.808 7.485 7.416.183 2.601 3.354 4.543 1.16 1.787-1.288 5.403-.478.25 1.713 18.044 5.164 7.844-1.432 3.075-2.368 2.755-.317 1.884-2.871 4.362.615Z" stroke="#FFFFFF" strokeDasharray="1, 0" strokeWidth="1"/><text x="635.720933572911" y="290.3225292139746" title="Williamsburg" class="hint ">Williamsburg</text></a><a id="s29" rel="nofollow " title="Spartanburg" class="hint   "><path d="m311.21 34.243 45.786 1.974 9.238 20.913-.198 3.359 2.358 1.236 4.91 15.848 2.432-.26 3.112 3.283-9.58 12.338-5.676 26.234-5.008 15.671-1.122-2.022-1.227-.636-1.256 1.109-.563-1.936-2.223-.218-5.538-7.592-7.039-2.027-7.189-6.376-1.712-.317.54-2.024-1.646-.675-.677-4.117-2.305.139-1.135-1.983-.812 1.167-2.658-3.965.495-.857-2.94-.6-2.04-2.468.58-1.508-1.148.181-6.216-7.814-.918.508Z" stroke="#FFFFFF" strokeDasharray="1, 0" strokeWidth="1"/><text x="332.36432859866756" y="77.50214951686863" title="Spartanburg" class="hint ">Spartanburg</text></a><a id="s30" rel="nofollow " title="Saluda" class="hint   "><path d="m357.596 207.08.47-.836-1.667-2.854 2.498-3.436 2.857 1.169 1.663-1.616-.154 1.494 5.88.052.666 1.298 1.228-1.625 5.119-2.099 2.186 2.01 3.075.293 2.697 2.84 4.79 1.614 2.094 3.366 1.767.294 1.05 1.712 1.43-.706 6.827 5.734 8.944.824-13.637 31.736-10.92 10.399-24.493-8.158-4.354-4.126-3.273-13.506-5.03-.248-10.466 2.169 2.616-5.358 5.93-6.817 2.425-6.075 1.426-.465.437-2.048 1.907-.438Z" stroke="#FFFFFF" strokeDasharray="1, 0" strokeWidth="1"/><text x="367.7251916051256" y="227.82910928495087" title="Saluda" class="hint ">Saluda</text></a><a id="s31" rel="nofollow " title="Richland" class="hint   "><path d="m457.506 194.008 3.894.338 1.61-1.729.993.577.924-1.828 1.125.72 13.394-3.9 18.148-2.722-5.907 14.001 20.18 18.386 1.944-1.943 11.92-3.004-2.75 3.02 2.287-.268-1.565 2.335 3.337 1.611-.86 1.228 1.591 1.801-.985 1.628.783.636-1.689.037-1.679 1.9.27 1.654-1.436-.819.162 1.035-1.585.62 2.167 3.568-.362 1.511 2.39.374-1.856 3.618 1.687.867-1.883.42.594.674-1.055 1.952 2.525 4.159-1.398-.213.368 5.3-1.45 1.265 2.335 2.843.057 3.3 2.358 1.65-1.002.026 1.288 2.772-.928.11.652 1.489-2.155 4.729-.738.851-2.635-.695-2.322-2.48.208-1.833-4.248 2.832-2.45-.627-.833-1.831-.572 1.701-1.465-1.235-1.663 1.867.39-1.667-1.27-1.517-.82.89.78 1.417-1.88-1.963-3.28 2.177.019-1.426-3.954-1.794-1.91.726.714-1.786-1.338.294-.698-1.394-3.667-1.354-1.147-2.066-5.654.545.122-3.494-2.843 1.135-2.23-2.482-4.682-1.193.184-1.322-2.046-.744.495-2.377-3.06-1.305 1.697-3.037-2.9-1.562 1.675-2.979-4.45-10.17-2.075-2.22-4.076-1.32-4.468-6.996-5.808-4.95-6.077-1.82-8.131-.156-4.833-6.833.09-2.178 1.961-1.132-6.124-6.416 3.833-5.605 2.384.274 2.69 1.237 3.597 4.363 3.613-.334 6.346 5.01-.21-2.042 1.479-1.688-1.717-3.68Z" stroke="#FFFFFF" strokeDasharray="1, 0" strokeWidth="1"/><text x="478.1989204634332" y="225.43121190636433" title="Richland" class="hint ">Richland</text></a><a id="s32" rel="nofollow " title="Orangeburg" class="hint   "><path d="m468.577 276.258 10.266 13.31 2.902-3.162.554 5.724 2.637.542 5.216-2.337 9.824 2.518 15.268 13.208-.157 2.453 4.856 5.745 4.25-.459 1.403 1.29.845-.85-1.946-2.773.72-.876-.65-.728 4.883-6.48-2.981-1.935 7.784-2.422.127 1.104 1.503-.47 4.656 4.218.004-2.758 1.392.266.962-1.495 2.79 3.211 1.968-.91.706 3.406-2.878.209.135 1.292 1.518.568-.613 1.357 2.947.304.34 3.98 9.56 7.054 5.592.298 5.587-2.768 1.762 1.71 3.932-2.675-.016 2.318 2.257-.596-.044 8.423-.975-.044-.055 1.205-1.097-1.148-.41 1.283.249 5.047-1.9 8.418-7.665 5.523-4.963-2.142-1.398.725-.484 2.594-4.163-1.167-4.64 1.095-7.619-3.541-2.44-8.74-40.246 25.15-5.443-5.478.733-.972-1.17-.549.117-2.734-1.402.132.11-1.304-4.301-1.994.206-.92-8.386-7.309-1.756.22-.862-1.716-7.534-3.202-.854-1.626-2.303-.041-5.43-4.89-3.08-.204-7.019-4.562-3.335-.292-2.393-4.307-4.886-.54-7.226-6.198-5.782-.046-4.365-1.671 24.841-26.237Z" stroke="#FFFFFF" strokeDasharray="1, 0" strokeWidth="1"/><text x="491.9999146283615" y="319.3492259039162" title="Orangeburg" class="hint ">Orangeburg</text></a><a id="s33" rel="nofollow " title="Newberry" class="hint   "><path d="m387.995 142.475 2.082 1.897 1.404-.525.518 1.81 8.101 5.995-.529 2.21 1.426.234-.637 1.565 1.477 1.233 7.425-7.37 2.211-.675 1.362 1.216 1.74-.176.77-1.484 2.15.442 1.45 3.92-1.2 2.763 3.361 10.374 3.378 6.313 1.784 6.684 2.368 2.475-.208 4.39 3.337 4.446-3.833 5.605.865 1.211-1.794.136-2.785 2.788-4.087.26-4.493 7.765 6.475 7.985-.74 1.485-9.428-2.605-1.007 1.79-8.824-.828-6.87-5.754-1.43.706-1.05-1.712-1.766-.294-2.094-3.366-4.79-1.615-2.697-2.839-3.075-.293-2.186-2.01-5.12 2.099-1.227 1.625-.666-1.298-5.88-.052.154-1.494-1.663 1.616-2.857-1.169-2.172 1.967-.33 1.63 1.71 2.844-1.356.493-2.864-1.686-1.339-2.53.346-2.464-1.654.116-.337-2.357-3.334-1.862 4.504-6.992 2.344-9.06 6.076-3.46-.142-1.544 1.71-1.593 7.317-3.672 6.458-11.849 4.043-2.492Z" stroke="#FFFFFF" strokeDasharray="1, 0" strokeWidth="1"/><text x="384.79675105349395" y="182.02650048474237" title="Newberry" class="hint ">Newberry</text></a><a id="s34" rel="nofollow " title="Marlboro" class="hint   "><path d="m617.913 97.967 33.895.306 30.189 29.937-24.596 52.542-3.299-1.187-.34-2.837-4.343-5.57 2.624-2.345-2.152-1.705.768-2.882-2.148-1.127-2.85 2.324.344-4.088-1.475-.115-2.862-3.155-.166-4.613 2.87-.198-.219-1.61 1.458-1.491-.781-1.653-3.573-1.214.354-1.44-1.558-1.068-.757 3.61-1.916-.12-.671 2.187-1.221-1.2-1.17 1.187-3.659-4.114 3.368-15.128.705-1.227 2.235.558 1.141-1.212-3.164-3.947.705-1.52-2.832-1.802-1.776.27-5.357-5.614-2.991-8.123-4.713-4.52-.896-4.792Z" stroke="#FFFFFF" strokeDasharray="1, 0" strokeWidth="1"/><text x="642.3797970075112" y="131.2991317247976" title="Marlboro" class="hint ">Marlboro</text></a><a id="s35" rel="nofollow " title="Charleston" class="hint   "><path d="m574.666 464.862-1.333-1.236-.603 1.32-1.639.727-.983-.957-4.608 2.946-.385-1.94-3.51-.351-.25 1.088 3.406 2.38-.287 1.697-1.4-.034-2.072-.914-3.9-5.329-4.502-2.066.202-1.625 3.195-2.2-.965-3.67 1.365-3.484-1.274-.707-3.284 2.297-.907-3.12 2.794-.544 2.423-3.994-2.113.045-2.15-2.807-.291-2.841.938-1.214-.912-3.007-1.668.231.727-1.266-2.32-1.167-.874-2.005.81-3.487 2-2.625-.419-1.475 4.046-4.207 1.534-4.758-.976-2.228 13.4 1.066 20.744 5.62-1.91-3.858-6.05-4.864 7.496-1.186.631-1.413 2.639-.323.602-2.03.274 1.39 2.92.907 2.365-6.408-8.282-8.27 4.155-.91-3.419-2.166-1.377 2.405-4.017-4.156.836-.872 2.798-1 6.875 5.39 5.65-1.814 2.071 2.663-.235 4.338 4.015 8.904 8.278-1.642-1.614 2.924.161 3.98 4.004 2.806.306 3.94 2.172.51 2.218-1.544-.051-4.541 5.637-2.424 2.942-8.13 1.518.827 5.068-3.61 1.609.178 1.064-2.303-.79-2.011.521-2.93 4.755-4.07 1.951-4.364 7.29-7.998 2.51-5.57 10.99-5.055 3.496 1.981 1.961-.577 5.699-9.8 3.676.244 1.583-1.255 4.809 5.266 6.646 4.485 10.851 2.76-.62 2.981-7.29 4.787-3.986 13.147-13.193-.561-5.507 2.077-3.498 3.513-7.164 10.905-7.05 3.05-2.06 3.408-5.064 1.466-3.543 8.218-7.398 1.983-11.832 7.066-3.811 6.202-.408 4.183-11.065 6.998-2.672 2.276-.379 1.667-15.923 3.209-7.475 5.514-6.68 1.869Z" stroke="#FFFFFF" strokeDasharray="1, 0" strokeWidth="1"/><text x="607.2079020208922" y="415.6163594505878" title="Charleston" class="hint ">Charleston</text></a><a id="s36" rel="nofollow " title="Marion" class="hint   "><path d="m725.131 188.022-.91 1.801 1.143.975-1.227 1.044.289 2.254-2.747 1.357-2.495 4.393-.486-.773-2.134 1.436-.685 2.802-1.638 1.475.412 2.877-1.753.911.107 2.446-4.18 3.358.245 1.775 1.19.335-1.147 3.316-8.02 4.65.016 3.615-1.179 1.585-1.596-.77-1.469 4.947 1.192 1.444-.468 1.33 2.927 1.392-.688 1.56 1.308-.055-.586 2.723 1.566 2.309 4.89 1.92.981 4.377-1.07 3.587 2.038 1.955-1.611 1.886 1.189 4.101 2.37 4.988 2.052 1.018-.131 1.342 3.688 4.248.18 2.525-1.37-.52.726 1.227-3.044-.696-1.104 1.473-2.336.29-.767-.666 1.18-1.016-4.528-.553.53-2.122-2.155.544-.85-5.462-3.95-5.718 1.109-6.337-2.876-.847.737-.64-1.244-.861-1.182-.163-.651 1.404.172-1.023-2.133-.44-2.768-4.792-2.764-1.99 1.285-1.17-3.986-.987-2.976-2.567.027-1.657-.958.758-.485-1.858-1.396.307-2.527-2.842 1.33-3.075-2.353-.808-2.404-3.81 1.17-1.66-.347-5.722-3.386-5.648.94-.821.009-3.244 1.88.6-1.303-3.181 1.05-1.776-2.042.162-5.291-9.815 3.59-4.34-1.31-5.47 4.101-.504 3.772-3.966 2.371-.606-.302-1.521 9.3-1.963 4.168-.07 10.071 5.097 1.443-1.272 7.34 3.67 3.389-.188 5.477-5.2Z" stroke="#FFFFFF" strokeDasharray="1, 0" strokeWidth="1"/><text x="684.6356489847612" y="215.80259839348378" title="Marion" class="hint ">Marion</text></a><a id="s37" rel="nofollow " title="Lexington" class="hint   "><path d="m428.797 197.028 5.259 5.205-1.962 1.132-.09 2.178 4.834 6.833 8.13.156 6.078 1.82 5.808 4.95 4.468 6.997 4.076 1.32 2.344 2.668 4.18 9.721-1.697 2.918 2.926 1.68-1.778 2.522 1.227 1.261-3.5 1.665-.97 13.22-1.865 2.678.135 3.684 2.956.326.469-2.874 1.275.107 1.263-2.886 7.156.452 4.79 3.523-4.318 3.096-4.674.842-26.326 12.665-20.214-10.574-10.215-2.082-1.53-1.753-.944-4.789-3.1-3.505-6.36-2.232-3.903-3.832-1.012-3.255-2.76-1.796-1.574-2.725 7.968-19.369 6.335-14.097 2.93 1.516 2.564-.887 3.04 2.025 1.76-.74-6.338-8.815 4.493-7.764 4.087-.26 2.785-2.789Z" stroke="#FFFFFF" strokeDasharray="1, 0" strokeWidth="1"/><text x="428.64143303743134" y="244.6901739283584" title="Lexington" class="hint ">Lexington</text></a><a id="s38" rel="nofollow " title="Lee" class="hint   "><path d="m569.58 169.988 1.791 2.449 3.09 1.385 1.13 2.683 5.07-2.456 1.986-4.478 1.882.084.959 8.193 4.706 5.085-.126 1.95 3.235 7.106-.133 5.09-6.133 5.737 3.222 5.36 3.644 2.189 3.07 3.867 7.065 2.326 3.568 3.259.577 1.445-3.493 6.324-5.839.131-14.752 9.043-1.002-8.577-8.284 2.095-2.03-6.455-4.169-1.214-2.804-6.267-8.206-.484-2.309-1.2-1.257 1.288-10.036-5.133-.002-9.124 2.71-2.524 1.137-2.454-.502-1.383 1.315.24 1.923-3.197-.27-3.696 1.111-.238-1.777-5.513 7.424-3.351 3.885.3-1.691-4.023.277-1.852 5.172.028Z" stroke="#FFFFFF" strokeDasharray="1, 0" strokeWidth="1"/><text x="565.1859104501756" y="202.4977889789091" title="Lee" class="hint ">Lee</text></a><a id="s39" rel="nofollow " title="Lancaster" class="hint   "><path d="M486.776 53.772 503.44 76.89l-2.054 18.914 31.608.367 1.297 4.305 4.975 3.97-.313 1.054 4.239 7.019-.342 2.186 1.686.71 1.975 3.682 1.418.212 1.327 2.883 1.14-.323-.433 2.912 2.826 2.325-.71 1.262 1.467.866-19.096 8.898 1.212 4.2 1.866 1.996.044 2.905-2.184-.576-.595 2.337-2.579.59-1.857.047-1.957-2.147-2.193 1.885.62-1.37-2.92.098.04 1.387.814-.137-.644 1.375-.62-1.374-1.998.003.044 1.394-1.558.403-4.018-5.78-1.196-.09-2.095 4.69-3.566 1.18-.236-9.831-18.352 13.486-1.271-1.65-1.456-3.174 2.292-2.085 1.188-8.877-3.112-13.15 1.041-5.41 3.855-4.806-2.398-7.385.167-7.319-3.036-5.836 4.305-3.904-1.808-4.149.19-4.642 1.843-3.548-1.191-6.8-1.438-.222-.139-4.085-2.215-2.338.722-1.313-.933.808-.76-1.32L488 60.862l-1.16-2.178.872-2.2Z" stroke="#FFFFFF" strokeDasharray="1, 0" strokeWidth="1"/><text x="504.7238810020225" y="117.41013839911312" title="Lancaster" class="hint ">Lancaster</text></a><a id="s40" rel="nofollow " title="Kershaw" class="hint   "><path d="m553.547 129.233 3.34 3.666 1.496 7.45 2.004 1.931.486 2.239 3.125 1.828.54 11.847 2.007 2.045 1.234 3.993 2.218.932.21 2.663-.355 2.091-5.138 4.108-5.172-.028-.277 1.852 1.691 4.022-3.885-.3-7.424 3.352 1.777 5.513-1.112.238.27 3.696-1.922 3.196-1.315-.24.502 1.384-1.76 3.476-15.59 12.632-4.903-1.584.095 1.607-11.878 3.066-1.943 1.943-20.18-18.386 13.384-31.596-1.828-1.852-.052-3.03-6.713-1.267-5.956-6.918 18.352-13.486.236 9.831 3.566-1.18 2.095-4.69 1.196.09 3.987 5.775 1.59-.398-.045-1.394 1.999-.003.213 1.612 1.05-1.613-.814.137-.04-1.387 2.268-.378.665.293-.928 1.354 2.488-1.882 1.957 2.147 4.436-.637.595-2.337 2.184.576.474-.925-3.579-8.197Z" stroke="#FFFFFF" strokeDasharray="1, 0" strokeWidth="1"/><text x="520.1418605693867" y="174.0844476253241" title="Kershaw" class="hint ">Kershaw</text></a><a id="s41" rel="nofollow " title="Jasper" class="hint   "><path d="m474.26 431.906 3.112 2.394 1.592 4.15 2.51 1.138-.516 4.075-1.803 1.528.56 1.531 7.599 3.35 4.372-6.232 2.871 4.52-.232 2.517 2.44 3.413-.535 8.263-1.496 2.28 3.399 5.654.615 4.526-1.83.584-2.374 5.477.094 2.364 2.491.035-1.657 4.21-2.319.805-2.517 5.423-2.073-1.255-4.112.196-1.5 8.32-9.572-1.002 1.719 2.418.394 4.207-3.424 3.2.504 4.098.784-.049-.418.889 1.556 1.37.606 2.689.922-.867 3.164 1.27-.811 1.415 1.051-.494 1.72 1.658-1.18.612.905.677-.161 2.828-1.214-1.38-1.031.453 1.328 1.688-.4 1.79 2.746-1.713 1.63-.13.909 1.247 1.553-.724-.048 1.116-2.372 1.106 4.43 2.143-2.16 4.06 4.559.493-3.576 5.009-5.25-1.751-5.366-3.452-2.782-3.262-4.774 2.569-10.289-5.138-.34-4.01.904-1.295-2.312-2.495 1.198-1.462 1.345.359-1.334-.9-.185-2.073 1.104-.493-1.102-.122-2.304-3.835-1.715-.32 1.118-1.185-1.74-2.162 1.435-1.224-.052-2.004 1.18-.287-.614-1.038 2.5-.544-.484-1.147.986-.691-.39-3.171-1.39-.294.3-2.759-.965-.372 1.172-1.99-1.963-1.687-.213 1.004-1.954.724.664-1.55-2.541-1.994.802-.917-1.863-1.699.501-2.102-3.642-4.864-.411-2.183 1.22-.968-.85-1.2 1.058.33 1.401-2.504-6.172-5.403-.731-1.57.669-1.604-2.644-.053-3.571-2.925.716-1.18-.871-1.893 35.6-31.156Z" stroke="#FFFFFF" strokeDasharray="1, 0" strokeWidth="1"/><text x="461.03551341616486" y="479.335122508665" title="Jasper" class="hint ">Jasper</text></a><a id="s42" rel="nofollow " title="Horry" class="hint   "><path d="m731.976 181.043.793-.534 71.092 72.569-18.055 5.622-14.816 8.943-11.46 10.045L742 297.994l-13.188.052.057-6.115-1.173 1.547-1.707-.794-.186-2.877-1.511-2.22.719-.573-.762-1.349.944.858.517-1.387-.816.224-.962-2.193-2.086.856-.595-4.13-4.589-3.447-.59-3.482-7.008-9.13-1.68-5.13 1.573-2.33-2.037-1.956 1.07-3.587-.981-4.378-4.89-1.92-1.567-2.308.586-2.723-1.308.054.688-1.559-2.927-1.392.468-1.33-1.2-1.328 1.421-2.799-.263-1.824 1.096-.719.888 1.022 1.11-1.558-.017-3.616 8.021-4.649 1.146-3.316-1.189-.335-.254-1.752 4.189-3.381-.1-2.463 1.916-1.33-.326-3.268 1.382-.648.72-2.841 2.1-1.397.485.773 2.495-4.393 2.747-1.357-.289-2.254 1.227-1.044-1.142-.975 1.125-2.443.755.326 1.53-2.918 2.026-.7 1.175-2.924Z" stroke="#FFFFFF" strokeDasharray="1, 0" strokeWidth="1"/><text x="733.8447773663021" y="241.73248515514962" title="Horry" class="hint ">Horry</text></a><a id="s43" rel="nofollow " title="Hampton" class="hint   "><path d="m463.242 385.497 9.196 11.456 3.363 8.309 1.736.467 2.158 3.682 1.822.062 5.045 5.29 1.671 5.327 3.915 5.44 2.325 7.934 3.032 3.464-10.191 13.144-7.6-3.35-.559-1.531 1.803-1.528.498-4.12-2.492-1.092-1.592-4.151-5.248-4.993-36.251 31.917-.611-1.743-.783 1.462-.104-1.501-3.428.495-4.425-1.889-.237-1.67-1.215.83-.376-2.247-2.637-.699-3.934-5.4.535-1.305 1.027.884.558-.86-1.287-.707 2.601-1.609-1.91-1.363 1.35-.144-1.588-5.591-.451.705-2.067-1.52 1.695-1.888-.692-1.2 1.404-.19-1.168-1.653 1.82-1.973 8.896-3.738 1.254-3.286 9.055-7.991-2.056-8.45 5.27-2.334.107-6.02Z" stroke="#FFFFFF" strokeDasharray="1, 0" strokeWidth="1"/><text x="446.43897663471535" y="425.47416710742255" title="Hampton" class="hint ">Hampton</text></a><a id="s44" rel="nofollow " title="Sumter" class="hint   "><path d="m544.002 210.813 10.036 5.133 1.257-1.287 2.31 1.2 8.205.483 2.804 6.267 4.17 1.214 2.03 6.455 8.283-2.095 1.002 8.577 14.752-9.043 5.839-.131 1.978-3.324 1.515-3 .1-.076 5.455 4.323 1.578-.34 4.815 2.702 2.521 2.9-30.689 19.32-2.392.436-15.562 10.12-2.09 2.858-16.869 2.983.7 8.443-5.703.588 1.147-1.96-.676-2.3-2.599.135-.798 3.835-2.995-.123-2.56 6.546-4.833 4.808-4.254-3.27.338-2.328-3.65-.946-.897-1.713.579-1.063-3.087-1.69-1.953-4.045 3.355-3.318.962-3.223-.688-1.318.937-.138-1.288-2.772 1.002-.026-2.358-1.65-.057-3.3-2.335-2.843 1.45-1.265-.368-5.3 1.398.213-2.525-4.16 1.055-1.95-.594-.674 1.883-.42-1.687-.868 1.846-3.699-2.38-.293.362-1.511-2.167-3.626 1.585-.562-.162-1.035 1.436.819-.27-1.654 1.68-1.9 1.688-.037-.783-.636.985-1.628-1.591-1.801.86-1.228-3.337-1.61 1.565-2.336-2.288.268.572-1.446 1.832-.36.21-2.883 4.904 1.584L544 201.69Z" stroke="#FFFFFF" strokeDasharray="1, 0" strokeWidth="1"/><text x="548.2478416396114" y="242.4955480771436" title="Sumter" class="hint ">Sumter</text></a><a id="s45" rel="nofollow " title="Aiken" class="hint   "><path d="m397.379 248.344 1.659 2.81 2.044.833 1.643 4.133 2.874 3.1 6.915 2.532 3.298 3.484 1.22 5.242 1.53 1.753 10.215 2.082 20.335 10.577-23.13 24.69-53.22 48.482-2.337-3.699-.863.057-.275 1.965-2.938-.458-.72-1.891-5.742-4.102 1.793-1.05-1.028-1.768 1.727 1.278.812-.754-1.022.001.402-2.04-4.047-2.027.344-1.671 1.577.343.122-1.69-.913-.572-1.228 1.352-.67-1.817-1.603 1.838-.147-2.219-1.402.128.404-.992-1.285-.267-.301-1.993-.663 2.24-.996.305.716-1.196-1.447-1.166 1.302-1.933-1.288.993-2.825-.8.737-1.58-1.54-2.56 1.895.525.978-1.023-2.856-5.2 2.792-1.039 1.75.762.25-.967-2.94-1.893 2.515-2.337-2.43-4.27-7.63-3.44-3.209-6.962Z" stroke="#FFFFFF" strokeDasharray="1, 0" strokeWidth="1"/><text x="380.1147649621036" y="302.2980926476013" title="Aiken" class="hint ">Aiken</text></a><a id="s46" rel="nofollow " title="Oconee" class="hint   "><path d="m176.367 86.227 1.077-1.666 1.223 1.333.122-1.904 4.757-4.455 1.54.71.029-2.582 2.173.98 1.756-2.247 2.112.586-2.046-3.143 1.737.646-1.066-2.34 3.188-4.263-.919-1.292.784-.754 27.068-8.658-2.794 3.292.63 1.024-.965 2.29 1.159 1.07-2.413-.042-1.811 3.514 1.227 1.814 2.484.701-.493 1.976 1.49 1.06-.977 1.064 1.691 1.951-.775 2.474 1.02.92-.648 1.306.759 1.768-1.173.317 1.78 9.32-.137 5.432 1.206-.65.061 1.96 1.953.91-2.654 3.906.524.877-1.545 3.147 5.641 1.958.257 2.428-1.228 2.033 2.17 1-.373 4.322 2.642 1.565-.993 1.207 2.295-.308-2.228 1.536 1.641.42-1.229 1.53-2.687.08.457 1.725 1.767-.249-20.84 24.584-5.213-1.76-2.84-3.266-2.275-.098-2.014-2.059 1.194-1.44-2.857-1.047-3.06-4.558-2.331-.369-.397-1.778-3.601-3.082-.063-1.22 1.445-.613-9.849-1.408-3.084-4.234-2.931-1.075-5.868-5.378-2.632-.365.138-1.908-1.81-1.062.94-.987-.883-4.013 4.613-4.74-.72-4.977 3.137-2.688-.735-1.855 1.485.43.821-1.868 2.38 1.048.393-4.558 2.615.172-.681-.6.779-2.735 1.778-.84-1.102-1.1Z" stroke="#FFFFFF" strokeDasharray="1, 0" strokeWidth="1"/><text x="188.3872098447081" y="106.71328500760482" title="Oconee" class="hint ">Oconee</text></a></g></g></svg>